<svg xmlns="http://www.w3.org/2000/svg" version="1.1" xmlns:xlink="http://www.w3.org/1999/xlink" xmlns:svgjs="http://svgjs.dev/svgjs" width="1500" height="1500" viewBox="0 0 1500 1500"><rect width="1500" height="1500" fill="#ffffff"></rect><g transform="matrix(0.6666666666666666,0,0,0.6666666666666666,249.39393939393938,438.5856950067477)"><svg viewBox="0 0 396 247" data-background-color="#ffffff" preserveAspectRatio="xMidYMid meet" height="935" width="1500" xmlns="http://www.w3.org/2000/svg" xmlns:xlink="http://www.w3.org/1999/xlink"><g id="tight-bounds" transform="matrix(1,0,0,1,0.2400000000000091,-0.09999999999999432)"><svg viewBox="0 0 395.52 247.2" height="247.2" width="395.52"><g><svg></svg></g><g><svg viewBox="0 0 395.52 247.2" height="247.2" width="395.52"><g transform="matrix(1,0,0,1,79.133992242723,47.215199999999996)"><svg viewBox="0 0 237.252015514554 152.7696" height="152.7696" width="237.252015514554"><g><svg viewBox="0 0 244.43135999999998 157.39247151881543" height="152.7696" width="237.252015514554"><g><svg viewBox="0 0 244.43135999999998 157.39247151881543" height="157.39247151881543" width="244.43135999999998"><g id="textblocktransform"><svg viewBox="0 0 244.43135999999998 157.39247151881543" height="157.39247151881543" width="244.43135999999998" id="textblock"><g><svg viewBox="0 0 244.43135999999998 111.64647990255784" height="111.64647990255784" width="244.43135999999998"><g transform="matrix(1,0,0,1,0,0)"><svg width="244.43135999999998" viewBox="1.6 -36.9 82.10000000000001 37.5" height="111.64647990255784" data-palette-color="#2c3ad1"><path d="M14-36.9L14-36.9Q16.5-36.9 18.88-36.2 21.25-35.5 23.4-34.2L23.4-34.2 21.1-30.85Q19.55-32 17.73-32.68 15.9-33.35 13.95-33.35L13.95-33.35Q11.3-33.35 9.45-32.02 7.6-30.7 7.6-27.8L7.6-27.8Q7.6-26.2 8.47-25.08 9.35-23.95 10.8-23.1 12.25-22.25 13.95-21.45L13.95-21.45Q15.7-20.65 17.53-19.7 19.35-18.75 20.88-17.48 22.4-16.2 23.33-14.38 24.25-12.55 24.25-9.9L24.25-9.9Q24.25-6.3 22.5-3.98 20.75-1.65 17.9-0.53 15.05 0.6 11.75 0.6L11.75 0.6Q9.05 0.6 6.53-0.13 4-0.85 1.6-2.1L1.6-2.1 3.4-6.2Q5.05-4.8 7.4-3.9 9.75-3 11.9-3L11.9-3Q13.55-3 15.25-3.63 16.95-4.25 18.1-5.65 19.25-7.05 19.25-9.25L19.25-9.25Q19.25-11.45 18.2-12.88 17.15-14.3 15.45-15.28 13.75-16.25 11.85-17.15L11.85-17.15Q10.2-17.95 8.55-18.8 6.9-19.65 5.55-20.8 4.2-21.95 3.4-23.55 2.6-25.15 2.6-27.4L2.6-27.4Q2.6-30.55 4.28-32.65 5.95-34.75 8.58-35.83 11.2-36.9 14-36.9ZM44.7 0.6L44.7 0.6Q40.4 0.6 37.27-0.9 34.15-2.4 32.1-4.98 30.05-7.55 29.07-10.8 28.1-14.05 28.1-17.5L28.1-17.5Q28.1-21.25 29.2-24.73 30.3-28.2 32.42-30.95 34.55-33.7 37.75-35.3 40.95-36.9 45.15-36.9L45.15-36.9Q46.9-36.9 48.97-36.48 51.05-36.05 52.95-35.2 54.85-34.35 56.05-32.95L56.05-32.95 53.45-30.05Q52-31.65 49.57-32.52 47.15-33.4 45.05-33.4L45.05-33.4Q42.15-33.4 39.95-32.08 37.75-30.75 36.25-28.5 34.75-26.25 33.97-23.45 33.2-20.65 33.2-17.75L33.2-17.75Q33.2-13.25 34.65-9.98 36.1-6.7 38.75-4.93 41.4-3.15 45-3.15L45-3.15Q47.1-3.15 49.55-3.75 52-4.35 54.6-5.65L54.6-5.65 56.15-2.8Q54.7-1.75 52.67-1 50.65-0.25 48.55 0.18 46.45 0.6 44.7 0.6ZM61.3-33.1L60.55-36.4 71.45-36.4Q75.05-36.4 77.82-35.27 80.59-34.15 82.15-31.75 83.7-29.35 83.7-25.4L83.7-25.4Q83.7-21.75 82.05-19.3 80.4-16.85 77.65-15.63 74.9-14.4 71.5-14.4L71.5-14.4 65.95-14.4 65.95 0 61.3 0 61.3-33.1ZM71.45-32.95L65.95-32.95 65.95-17.8 71.4-17.8Q74.84-17.8 76.84-19.9 78.84-22 78.84-25.4L78.84-25.4Q78.84-28.95 76.95-30.95 75.05-32.95 71.45-32.95L71.45-32.95Z" opacity="1" transform="matrix(1,0,0,1,0,0)" fill="#2c3ad1" class="wordmark-text-0" data-fill-palette-color="primary" id="text-0"></path></svg></g></svg></g><g transform="matrix(1,0,0,1,100.925708544,138.0035342920341)"><svg viewBox="0 0 143.50565145599998 19.388937226781344" height="19.388937226781344" width="143.50565145599998"><g transform="matrix(1,0,0,1,0,0)"><svg width="143.50565145599998" viewBox="3.03 -38.01 356.47 48.169999999999995" height="19.388937226781344" data-palette-color="#2c3ad1"><path d="M21.61-11.28L26.12-11.28Q25.83-5.57 22.91-2.54 20 0.49 14.67 0.49L14.67 0.49Q9.33 0.49 6.18-3.58 3.03-7.64 3.03-14.6L3.03-14.6 3.03-21.04Q3.03-27.98 6.26-32.01 9.5-36.04 15.09-36.04L15.09-36.04Q20.24-36.04 23.06-32.95 25.88-29.86 26.12-24.12L26.12-24.12 21.61-24.12Q21.31-28.47 19.78-30.32 18.24-32.18 15.09-32.18L15.09-32.18Q11.45-32.18 9.5-29.33 7.54-26.49 7.54-21L7.54-21 7.54-14.48Q7.54-9.08 9.36-6.2 11.18-3.32 14.67-3.32 18.16-3.32 19.7-5.05 21.24-6.79 21.61-11.28L21.61-11.28ZM30.66-11.55L30.66-14.43Q30.66-20.19 33.46-23.55 36.25-26.9 40.84-26.9 45.43-26.9 48.23-23.63 51.02-20.36 51.1-14.72L51.1-14.72 51.1-11.94Q51.1-6.2 48.31-2.86 45.53 0.49 40.89 0.49L40.89 0.49Q36.3 0.49 33.53-2.76 30.76-6.01 30.66-11.55L30.66-11.55ZM34.98-14.45L34.98-11.94Q34.98-7.86 36.58-5.53 38.18-3.2 40.89-3.2L40.89-3.2Q46.6-3.2 46.77-11.45L46.77-11.45 46.77-14.43Q46.77-18.48 45.16-20.84 43.55-23.19 40.84-23.19L40.84-23.19Q38.18-23.19 36.58-20.84 34.98-18.48 34.98-14.45L34.98-14.45ZM56.66-26.42L60.74-26.42 60.86-23.56Q63.37-26.9 67.28-26.9L67.28-26.9Q74.29-26.9 74.38-17.55L74.38-17.55 74.38 0 70.09 0 70.09-17.36Q70.09-20.46 69.05-21.77 68.01-23.07 65.94-23.07L65.94-23.07Q64.33-23.07 63.04-22 61.76-20.92 60.98-19.19L60.98-19.19 60.98 0 56.66 0 56.66-26.42ZM82.22-32.81L86.52-32.81 86.52-26.42 90.5-26.42 90.5-22.92 86.52-22.92 86.52-6.54Q86.52-4.98 87.03-4.17 87.54-3.37 88.79-3.37L88.79-3.37Q89.64-3.37 90.52-3.66L90.52-3.66 90.47 0Q89.01 0.49 87.47 0.49L87.47 0.49Q84.9 0.49 83.56-1.34 82.22-3.17 82.22-6.52L82.22-6.52 82.22-22.92 78.19-22.92 78.19-26.42 82.22-26.42 82.22-32.81ZM106.51-26.56L106.53-22.36Q105.63-22.53 104.58-22.53L104.58-22.53Q101.26-22.53 99.94-18.9L99.94-18.9 99.94 0 95.62 0 95.62-26.42 99.82-26.42 99.89-23.73Q101.63-26.9 104.8-26.9L104.8-26.9Q105.82-26.9 106.51-26.56L106.51-26.56ZM109.44-11.55L109.44-14.43Q109.44-20.19 112.23-23.55 115.03-26.9 119.62-26.9 124.21-26.9 127-23.63 129.8-20.36 129.87-14.72L129.87-14.72 129.87-11.94Q129.87-6.2 127.09-2.86 124.3 0.49 119.67 0.49L119.67 0.49Q115.08 0.49 112.3-2.76 109.53-6.01 109.44-11.55L109.44-11.55ZM113.76-14.45L113.76-11.94Q113.76-7.86 115.36-5.53 116.96-3.2 119.67-3.2L119.67-3.2Q125.38-3.2 125.55-11.45L125.55-11.45 125.55-14.43Q125.55-18.48 123.94-20.84 122.33-23.19 119.62-23.19L119.62-23.19Q116.96-23.19 115.36-20.84 113.76-18.48 113.76-14.45L113.76-14.45ZM140.1-37.5L140.1 0 135.78 0 135.78-37.5 140.1-37.5ZM146.93 7.08L146.93 7.08 144.37 5.32Q146.66 2.12 146.76-1.27L146.76-1.27 146.76-5.35 151.18-5.35 151.18-1.81Q151.18 0.66 149.97 3.13 148.76 5.59 146.93 7.08ZM184.28-8.98L184.28-8.98Q184.28-11.65 182.84-13.06 181.4-14.48 177.64-15.82 173.88-17.16 171.89-18.64 169.9-20.12 168.91-22.01 167.92-23.9 167.92-26.34L167.92-26.34Q167.92-30.57 170.74-33.3 173.56-36.04 178.13-36.04L178.13-36.04Q181.25-36.04 183.69-34.63 186.13-33.23 187.45-30.74 188.77-28.25 188.77-25.27L188.77-25.27 184.28-25.27Q184.28-28.56 182.69-30.37 181.11-32.18 178.13-32.18L178.13-32.18Q175.42-32.18 173.93-30.66 172.44-29.15 172.44-26.42L172.44-26.42Q172.44-24.17 174.05-22.66 175.66-21.14 179.03-19.95L179.03-19.95Q184.28-18.21 186.54-15.67 188.8-13.13 188.8-9.03L188.8-9.03Q188.8-4.71 185.99-2.11 183.18 0.49 178.35 0.49L178.35 0.49Q175.25 0.49 172.62-0.87 170-2.22 168.5-4.68 166.99-7.13 166.99-10.3L166.99-10.3 171.49-10.3Q171.49-7.01 173.33-5.18 175.17-3.34 178.35-3.34L178.35-3.34Q181.3-3.34 182.79-4.86 184.28-6.37 184.28-8.98ZM198.71-26.42L198.71 0 194.38 0 194.38-26.42 198.71-26.42ZM199.05-33.42L199.05-33.42Q199.05-32.32 198.44-31.59 197.83-30.86 196.58-30.86L196.58-30.86Q195.36-30.86 194.75-31.59 194.14-32.32 194.14-33.42 194.14-34.52 194.75-35.28 195.36-36.04 196.58-36.04 197.8-36.04 198.42-35.27 199.05-34.5 199.05-33.42ZM205.51-26.42L209.57-26.42 209.66-23.97Q212.08-26.9 216.04-26.9L216.04-26.9Q220.46-26.9 222.21-23.07L222.21-23.07Q224.7-26.9 229.15-26.9L229.15-26.9Q236.45-26.9 236.62-17.8L236.62-17.8 236.62 0 232.32 0 232.32-17.38Q232.32-20.26 231.3-21.67 230.27-23.07 227.83-23.07L227.83-23.07Q225.88-23.07 224.66-21.56 223.43-20.04 223.24-17.7L223.24-17.7 223.24 0 218.89 0 218.89-17.58Q218.82-23.07 214.43-23.07L214.43-23.07Q211.15-23.07 209.81-19.8L209.81-19.8 209.81 0 205.51 0 205.51-26.42ZM262.2-14.82L262.2-11.94Q262.2-5.66 259.94-2.59 257.68 0.49 253.56 0.49L253.56 0.49Q249.58 0.49 247.43-2.51L247.43-2.51 247.43 10.16 243.13 10.16 243.13-26.42 247.04-26.42 247.26-23.49Q249.43-26.9 253.49-26.9L253.49-26.9Q257.83-26.9 259.98-23.88 262.13-20.85 262.2-14.82L262.2-14.82ZM257.9-11.77L257.9-14.4Q257.9-18.85 256.54-20.96 255.17-23.07 252.14-23.07L252.14-23.07Q249.04-23.07 247.43-19.97L247.43-19.97 247.43-6.23Q249.02-3.2 252.19-3.2L252.19-3.2Q255.12-3.2 256.5-5.31 257.88-7.42 257.9-11.77L257.9-11.77ZM272.43-37.5L272.43 0 268.11 0 268.11-37.5 272.43-37.5ZM283.88-26.42L283.88 0 279.55 0 279.55-26.42 283.88-26.42ZM284.22-33.42L284.22-33.42Q284.22-32.32 283.61-31.59 283-30.86 281.75-30.86L281.75-30.86Q280.53-30.86 279.92-31.59 279.31-32.32 279.31-33.42 279.31-34.52 279.92-35.28 280.53-36.04 281.75-36.04 282.97-36.04 283.6-35.27 284.22-34.5 284.22-33.42ZM296.89 0L292.57 0 292.57-22.92 289.12-22.92 289.12-26.42 292.57-26.42 292.57-29.47Q292.64-33.5 294.6-35.75 296.57-38.01 300.16-38.01L300.16-38.01Q301.45-38.01 302.77-37.6L302.77-37.6 302.55-33.94Q301.62-34.16 300.57-34.16L300.57-34.16Q296.89-34.16 296.89-28.91L296.89-28.91 296.89-26.42 301.4-26.42 301.4-22.92 296.89-22.92 296.89 0ZM311.14-26.42L311.14 0 306.82 0 306.82-26.42 311.14-26.42ZM311.48-33.42L311.48-33.42Q311.48-32.32 310.87-31.59 310.26-30.86 309.02-30.86L309.02-30.86Q307.8-30.86 307.19-31.59 306.58-32.32 306.58-33.42 306.58-34.52 307.19-35.28 307.8-36.04 309.02-36.04 310.24-36.04 310.86-35.27 311.48-34.5 311.48-33.42ZM327.37 0.49L327.37 0.49Q322.44 0.49 319.81-2.45 317.17-5.4 317.12-11.08L317.12-11.08 317.12-14.28Q317.12-20.19 319.7-23.55 322.27-26.9 326.89-26.9L326.89-26.9Q331.52-26.9 333.82-23.95 336.11-21 336.16-14.75L336.16-14.75 336.16-11.91 321.42-11.91 321.42-11.3Q321.42-7.06 323.02-5.13 324.62-3.2 327.62-3.2L327.62-3.2Q329.52-3.2 330.98-3.92 332.43-4.64 333.7-6.2L333.7-6.2 335.94-3.47Q333.14 0.49 327.37 0.49ZM326.89-23.19L326.89-23.19Q324.2-23.19 322.91-21.35 321.61-19.51 321.44-15.63L321.44-15.63 331.84-15.63 331.84-16.21Q331.67-19.97 330.49-21.58 329.3-23.19 326.89-23.19ZM340.43-11.69L340.43-14.4Q340.43-20.51 342.72-23.71 345-26.9 349.27-26.9L349.27-26.9Q353.06-26.9 355.18-23.83L355.18-23.83 355.18-37.5 359.5-37.5 359.5 0 355.55 0 355.33-2.83Q353.2 0.49 349.25 0.49L349.25 0.49Q345.15 0.49 342.81-2.7 340.48-5.88 340.43-11.69L340.43-11.69ZM344.75-14.58L344.75-11.94Q344.75-7.5 346.07-5.41 347.39-3.32 350.37-3.32L350.37-3.32Q353.59-3.32 355.18-6.57L355.18-6.57 355.18-19.9Q353.52-23.07 350.39-23.07L350.39-23.07Q347.42-23.07 346.1-20.98 344.78-18.9 344.75-14.58L344.75-14.58Z" opacity="1" transform="matrix(1,0,0,1,0,0)" fill="#2c3ad1" class="slogan-text-1" data-fill-palette-color="secondary" id="text-1"></path></svg></g></svg></g></svg></g></svg></g></svg></g></svg></g><path d="M138.089 41.215L138.089 0 385.289 0 385.289 247.2 138.089 247.2 138.089 205.985 147.862 205.985 147.862 237.427 375.516 237.427 375.516 9.773 147.862 9.773 147.862 41.215Z" fill="#2c3ad1" stroke="transparent" data-fill-palette-color="tertiary"></path></svg></g><defs></defs></svg><rect width="395.52" height="247.2" fill="none" stroke="none" visibility="hidden"></rect></g></svg></g></svg>